<svg xmlns="http://www.w3.org/2000/svg" viewBox="0 0 512 512" width="512" height="512">
  <defs>
    <linearGradient id="bg" x1="0%" y1="0%" x2="100%" y2="100%">
      <stop offset="0%" style="stop-color:#ff7a00"/>
      <stop offset="100%" style="stop-color:#ff3d00"/>
    </linearGradient>
  </defs>
  <rect width="512" height="512" rx="92" fill="url(#bg)"/>
  <path d="M403 124c-82-51-213-46-292 32-71 70-82 174-18 247" fill="none" stroke="#fff" stroke-width="42" stroke-linecap="round"/>
  <path d="M409 355c-51 51-142 65-219 28" fill="none" stroke="#fff" stroke-width="42" stroke-linecap="round"/>
  <circle cx="257" cy="258" r="82" fill="#fff"/>
  <circle cx="257" cy="258" r="54" fill="#ff5a00"/>
  <path d="M281 247l112-69-69 112c-10 17-35 7-35-12v-12h-12c-19 0-29-25-12-35z" fill="#fff"/>
  <circle cx="241" cy="274" r="15" fill="#ff5a00"/>
</svg>
